<svg xmlns="http://www.w3.org/2000/svg" viewBox="0 0 77 56"><defs><style>.cls-1{fill:none;stroke:#fff;stroke-linecap:round;stroke-miterlimit:10;stroke-width:2px;}</style></defs><title>Recurso 1</title><g id="Capa_2" data-name="Capa 2"><g id="Capa_1-2" data-name="Capa 1"><circle class="cls-1" cx="49" cy="28" r="27"/><circle class="cls-1" cx="49" cy="28" r="21.5"/><line class="cls-1" x1="5.5" y1="45.5" x2="19.5" y2="45.5"/><line class="cls-1" x1="1" y1="32" x2="15" y2="32"/><line class="cls-1" x1="1" y1="24" x2="15" y2="24"/><line class="cls-1" x1="12" y1="18" x2="20" y2="18"/><line class="cls-1" x1="5" y1="11" x2="19" y2="11"/><line class="cls-1" x1="12" y1="38" x2="20" y2="38"/><line class="cls-1" x1="16" y1="54" x2="41" y2="54"/><line class="cls-1" x1="16" y1="3" x2="38" y2="3"/><line class="cls-1" x1="49" y1="28" x2="49" y2="18"/><line class="cls-1" x1="54" y1="28" x2="49" y2="28"/><line class="cls-1" x1="57.99" y1="37.39" x2="61.45" y2="41"/><line class="cls-1" x1="40.01" y1="18.61" x2="36.55" y2="15"/><line class="cls-1" x1="39.81" y1="37.19" x2="36.27" y2="40.73"/><line class="cls-1" x1="58.19" y1="18.81" x2="61.73" y2="15.27"/><line class="cls-1" x1="49" y1="41" x2="49" y2="46"/><line class="cls-1" x1="49" y1="15" x2="49" y2="10"/><line class="cls-1" x1="36" y1="28" x2="31" y2="28"/><line class="cls-1" x1="62" y1="28" x2="67" y2="28"/></g></g></svg>